<?xml version="1.0" encoding="utf-8"?>
<!-- Generator: Adobe Illustrator 26.2.1, SVG Export Plug-In . SVG Version: 6.00 Build 0)  -->
<svg version="1.1" id="Layer_1" xmlns="http://www.w3.org/2000/svg" xmlns:xlink="http://www.w3.org/1999/xlink" x="0px" y="0px"
	 viewBox="0 0 512 512" style="enable-background:new 0 0 512 512;" xml:space="preserve">
<style type="text/css">
	.st0{fill:#1D1D1E;}
	.st1{fill:#FFEBD2;}
	.st2{fill:#E9D7C3;}
	.st3{fill:#FFFFFF;}
	.st4{fill:#1D1D1D;}
</style>
<g>
	<path class="st0" d="M49.5,157.8c0,0-41.3-32-41.3-66.1c0-33,16.5-82.6,74.3-74.3c41.7,6,49.5,82.6,49.5,82.6L49.5,157.8z"/>
	<path class="st0" d="M462.5,157.8c0,0,41.3-32,41.3-66.1c0-33-16.5-82.6-74.3-74.3c-41.7,6-49.5,82.6-49.5,82.6L462.5,157.8z"/>
</g>
<path class="st1" d="M512,280.8c0,132.3-114.6,214.7-256,214.7S0,413,0,280.8S142,33,256,33S512,148.5,512,280.8z"/>
<path class="st2" d="M165.2,421.1c0,41,40.7,74.3,90.8,74.3s90.8-33.3,90.8-74.3H165.2z"/>
<path class="st3" d="M322.1,305.5C297.3,264.3,280.8,256,256,256s-41.3,8.3-66.1,49.5c-21.2,35.4-39.4,105.6-24.8,123.9
	c33,41.3,82.6,16.5,90.8,16.5s57.8,24.8,90.8-16.5C361.4,411.2,343.3,341,322.1,305.5z"/>
<g>
	<path class="st4" d="M305.5,247.7c0-22.8,18.5-41.3,41.3-41.3c24.8,0,99.1,49.5,99.1,82.6s-40,72.5-74.3,49.5
		C346.8,322.1,305.5,264.3,305.5,247.7z"/>
	<path class="st4" d="M206.5,247.7c0-22.8-18.5-41.3-41.3-41.3c-24.8,0-99.1,49.5-99.1,82.6s40,72.5,74.3,49.5
		C165.2,322.1,206.5,264.3,206.5,247.7z"/>
</g>
<g>
	<path class="st0" d="M256,363.3c-15,0-57.8,2.8-57.8,16.5c0,24.8,52.7,42.6,57.8,41.3c5.1,1.3,57.8-16.5,57.8-41.3
		C313.8,366.1,271,363.3,256,363.3z"/>
	<circle class="st0" cx="165.2" cy="247.7" r="16.5"/>
	<circle class="st0" cx="346.8" cy="247.7" r="16.5"/>
</g>
</svg>
